<svg id="Capa_1" data-name="Capa 1" xmlns="http://www.w3.org/2000/svg" viewBox="0 0 99.02 77.63"><defs><style>.cls-1{fill:#b03d89;}</style></defs><title>GRAN FORMATO MORADO</title><path class="cls-1" d="M81.34,57.35H21.68v-26H81.34Z" transform="translate(-1.99 -8.18)"/><path class="cls-1" d="M21.2,14.37c0-1.43-.06-2.78,0-4.12a2.1,2.1,0,0,1,2.07-2c.44,0,.88,0,1.32,0h54c2.58,0,3.18.61,3.18,3.17v3Z" transform="translate(-1.99 -8.18)"/><path class="cls-1" d="M89.94,72.58H13V68.75h76.9Z" transform="translate(-1.99 -8.18)"/><path class="cls-1" d="M2.08,28.66H17.26V47.39H2.08Z" transform="translate(-1.99 -8.18)"/><path class="cls-1" d="M85.74,28.66h15.19V47.39H85.74Z" transform="translate(-1.99 -8.18)"/><path class="cls-1" d="M7.68,48.81h3.93V81.3H7.68Z" transform="translate(-1.99 -8.18)"/><path class="cls-1" d="M91.41,48.81h3.93V81.3H91.41Z" transform="translate(-1.99 -8.18)"/><path class="cls-1" d="M17.35,27.27H2c0-1.53-.07-3,0-4.45a2.9,2.9,0,0,1,2.84-2.71q4.77-.11,9.56,0A3,3,0,0,1,17.34,23C17.4,24.41,17.35,25.8,17.35,27.27Z" transform="translate(-1.99 -8.18)"/><path class="cls-1" d="M101,27.28H85.7c0-1.57-.11-3.1,0-4.61a2.87,2.87,0,0,1,2.86-2.56q4.77-.09,9.56,0a2.88,2.88,0,0,1,2.8,2.63C101.07,24.22,101,25.72,101,27.28Z" transform="translate(-1.99 -8.18)"/><path class="cls-1" d="M97.08,85.82H89.77c-.06-.09-.1-.12-.1-.15-.33-3-.27-3,2.67-3,1.17,0,2.34,0,3.51,0,.9,0,1.28.34,1.23,1.23C97.05,84.48,97.08,85.11,97.08,85.82Z" transform="translate(-1.99 -8.18)"/><path class="cls-1" d="M6.07,85.8c-.44-3.08-.38-3.16,2.59-3.16,1.17,0,2.34,0,3.5,0,.9,0,1.28.34,1.24,1.23,0,.62,0,1.24,0,1.94Z" transform="translate(-1.99 -8.18)"/><path class="cls-1" d="M18.68,32.33h1.57v9.94l-1.57.12Z" transform="translate(-1.99 -8.18)"/><path class="cls-1" d="M84.3,42.37H82.76v-10H84.3Z" transform="translate(-1.99 -8.18)"/><path class="cls-1" d="M73,22.59c-.84-1.66-2.17-1.36-3.52-1.27C70.23,23,71.61,22.61,73,22.59Z" transform="translate(-1.99 -8.18)"/><path class="cls-1" d="M94.22,16.12a4,4,0,0,0-1.89-.38q-40.83,0-81.65,0c-.26,0-.51,0-.77,0A2.14,2.14,0,0,0,8,18.82c2,0,4-.08,6,0a6,6,0,0,1,2.67.81,4.2,4.2,0,0,1,1.89,3.87c0,2.12,0,4.24,0,6.42H84.24c.06-.13.12-.2.12-.26,0-2.09,0-4.18,0-6.27a4.39,4.39,0,0,1,4.66-4.6h6C95.33,17.65,95.19,16.67,94.22,16.12Zm-43,7.23a1.43,1.43,0,0,1-1.44-1.47,1.46,1.46,0,0,1,1.54-1.38,1.5,1.5,0,0,1,1.33,1.58A1.4,1.4,0,0,1,51.18,23.35Zm5.48,0a1.42,1.42,0,0,1-.13-2.84A1.44,1.44,0,0,1,58,22,1.38,1.38,0,0,1,56.66,23.34Zm5.91,0a1.43,1.43,0,0,1-.12-2.85A1.47,1.47,0,0,1,64,22,1.36,1.36,0,0,1,62.57,23.34Zm19.69.18c-.05,1-.68,1.47-1.68,1.47H74c-2.12,0-4.25,0-6.37,0-1.38,0-1.83-.46-1.84-1.85,0-.92,0-1.83,0-2.75a1.38,1.38,0,0,1,1.51-1.51H80.81a1.36,1.36,0,0,1,1.46,1.45C82.31,21.4,82.31,22.46,82.26,23.52Z" transform="translate(-1.99 -8.18)"/><path class="cls-1" d="M75.15,21.37c.6.63,1,1.54,2.22,1.12C76.72,21.85,76.33,21,75.15,21.37Z" transform="translate(-1.99 -8.18)"/><path class="cls-1" d="M73,22.59c-1.37,0-2.75.39-3.52-1.27C70.81,21.23,72.14,20.93,73,22.59Z" transform="translate(-1.99 -8.18)"/><path class="cls-1" d="M75.15,21.37c1.18-.41,1.57.48,2.22,1.12C76.13,22.9,75.75,22,75.15,21.37Z" transform="translate(-1.99 -8.18)"/></svg>