<?xml version="1.0" encoding="utf-8"?>
<!-- Generator: Adobe Illustrator 23.0.1, SVG Export Plug-In . SVG Version: 6.00 Build 0)  -->
<svg version="1.1" id="Capa_1" xmlns="http://www.w3.org/2000/svg" xmlns:xlink="http://www.w3.org/1999/xlink" x="0px" y="0px"
	 viewBox="0 0 479.2 281.6" style="enable-background:new 0 0 479.2 281.6;" xml:space="preserve">
<style type="text/css">
	.st0{fill-rule:evenodd;clip-rule:evenodd;fill:#636363;}
</style>
<path class="st0" d="M439.9,214.3v4.8h1.6c0.5,0,0.9,0,1.3-0.1c0.3,0,0.7-0.1,0.9-0.2c0.6-0.2,1-0.4,1.3-0.8
	c0.3-0.4,0.5-0.9,0.5-1.5c0-0.6-0.2-1-0.4-1.4c-0.3-0.3-0.7-0.6-1.2-0.7c-0.2-0.1-0.5-0.1-0.8-0.2c-0.3,0-0.7-0.1-1.2-0.1H439.9z
	 M439.9,220.5v5.4h-1.6v-13.1h3.4c0.6,0,1.1,0,1.5,0.1c0.4,0,0.8,0.1,1.1,0.2c0.9,0.2,1.6,0.7,2.1,1.3c0.5,0.6,0.7,1.3,0.7,2.2
	c0,0.5-0.1,1-0.3,1.4c-0.2,0.4-0.4,0.8-0.7,1.1c-0.3,0.3-0.7,0.6-1.1,0.8c-0.4,0.2-0.9,0.3-1.4,0.4v0l3.9,5.6h-1.6l-4-5.4H439.9z
	 M442.1,210.1c5.1,0,9.3,4.2,9.3,9.3c0,5.1-4.2,9.3-9.3,9.3c-5.1,0-9.3-4.2-9.3-9.3C432.8,214.3,437,210.1,442.1,210.1z
	 M442.1,208.5c6,0,10.8,4.9,10.8,10.8c0,6-4.9,10.8-10.8,10.8c-6,0-10.8-4.9-10.8-10.8C431.3,213.4,436.1,208.5,442.1,208.5z"/>
<path class="st0" d="M188.4,74.3c6,0,8.8,4.8,8.8,9.7c0.1,5.3-2.9,10-8.5,10.2c-5.9,0.2-8.9-4.2-9.1-9.7
	C179.6,79.5,182.1,74.3,188.4,74.3 M188.4,70.6C180,70.6,174,75.2,174,84c0,8.9,5.3,13.9,14.5,13.9c8.9,0,14.4-4.8,14.4-13.7
	C202.8,75.3,197.3,70.6,188.4,70.6z M156.9,82.9v-8c3.7,0,8.4-0.8,8.4,3.9C165.3,83.1,160.6,82.9,156.9,82.9z M151.4,97.3h5.5V86.6
	c4.5,0,10.1,0.1,12.9-3.9c2.8-3.9,1.6-10.9-6.3-11.5l-12.1-0.1V97.3z M124.2,71.1h4.9c0,2.5-0.2,15.8,0.2,17.9
	c1.1,5.7,11.2,5.5,11.9-0.5c0.4-3.5,0.1-13.5,0.1-17.4h4.9c0,3.3,0.3,17.2-0.4,20.1c-1.7,7.3-12,7.7-16.9,5.4
	c-4.4-2.1-4.8-5.8-4.8-10.1V71.1z M106.2,82.6v-7.8c3.8,0,8.8-0.8,8.8,3.5C115,83.2,109.4,82.6,106.2,82.6z M100.6,97.3h5.6V86.2
	h3.3l6.1,11.1h6.6l-7.1-11.9c3.3-1.3,5.9-3.3,5.9-7.3c0-5.1-4.3-6.8-8.6-6.9l-11.8,0V97.3z M86.4,82.9v3.6h4.2v5.6
	c-4.5,1.5-11.5,1.8-13.6-3.8c-2-5.6,0-14.1,8.2-14.1c3.2,0,5.3,1,6.7,3.7l3-3.7c-2.4-2.6-5-3.6-9.5-3.6c-17.2,0-17.1,18.2-10.3,23.5
	c5.4,4.3,14.1,3.1,20.5,1.4V82.9H86.4z M183.6,218.9c-47.5-4.5-93.3-2.2-121.7,21c-8.9-1.5-17.8-2.9-26.8-4.4
	c-11-35.9-13.3-73.5-8.4-112.5c7.8-38.1,27.8-71.7,75.7-74.6c49.7-3,117.3,9.1,184.5,16.1c48,5,90.2,0.7,118-20.7
	c10.2,3,20.4,6.1,30.7,9.1c12.9,36.9,13.8,73.2,7.9,109c-8.4,50.7-41.2,68.8-85.6,69.2C296.7,231.8,232.9,223.5,183.6,218.9z
	 M216.8,214.5c-79-10.2-140.9-9.1-176.5,15.8c-10-40.3-14.2-77.1-7.1-108c12.5-54.1,46.5-66.6,78.4-68.4
	c39.9-2.2,102.5,11,153.5,18.1c65.8,9.1,124.7,10.9,164.7-12c12.6,33.2,14.8,66.8,9.1,100.7c-5.6,38.9-28.8,58.8-66.3,63.4
	C324,230,269.7,221.4,216.8,214.5z"/>
<path class="st0" d="M301.9,171.7h-16.7v-49.2h14c7.3,0,10.3,2,10.5,6.1c0.3,6.1-3.1,9.3-8.7,9.3h-5.3l-6.6,14.4h13
	c6.3,0,12.1,4.5,11.4,10.1C312.9,167.8,308.2,171.7,301.9,171.7 M304.9,187.9h-39.8V106h38c13.2,0,24.5,3.8,26.5,16.5
	c1.5,9.3-1.4,15.9-8.5,20.6c10.5,4.7,14.9,17.4,11.2,28.9C328.5,183.9,314.5,187.9,304.9,187.9z M377.5,124.1
	c12.1,0,21.8,9.9,21.8,22.1c0,12.2-9.8,22.1-21.8,22.1c-12.1,0-21.8-9.9-21.8-22.1C355.7,134,365.5,124.1,377.5,124.1z M377.5,104.6
	c22.7,0,41.1,18.6,41.1,41.6c0,23-18.4,41.6-41.1,41.6c-22.7,0-41.1-18.6-41.1-41.6C336.5,123.3,354.9,104.6,377.5,104.6z
	 M256.9,106v81.9h-20.1V136l-13.2,51.9H204l-12.6-51.2v51.2H172V106h31.5l10.7,46l10.5-46H256.9z M143.7,106h19.9v81.9h-19.9V106z
	 M107.1,171.7H90.4v-49.2h14c7.3,0,10.3,2,10.5,6.1c0.3,6.1-3.1,9.3-8.7,9.3h-5.3l-6.6,14.4h13c6.3,0,12.1,4.5,11.4,10.1
	C118,167.8,113.4,171.7,107.1,171.7z M110.1,187.9H70.3V106h38c13.2,0,24.5,3.8,26.5,16.5c1.5,9.3-1.4,15.9-8.5,20.6
	c10.5,4.7,14.9,17.4,11.2,28.9C133.7,183.9,119.7,187.9,110.1,187.9z"/>
</svg>
