<svg id="Capa_1" data-name="Capa 1" xmlns="http://www.w3.org/2000/svg" viewBox="0 0 82 78.29"><defs><style>.cls-1{fill:#b03d89;}.cls-2{fill:#fff;}</style></defs><title>IMPRESORA MORADA</title><polygon class="cls-1" points="5.41 0 5.41 2.49 6.34 2.9 5.12 2.9 4.9 4.46 26.93 6.84 29.12 3.39 5.41 0"/><polygon class="cls-1" points="2 5.28 2.29 3.83 5.01 4.15 17.77 5.65 17.29 7.23 2 5.28"/><path class="cls-1" d="M26.42,8.23,14,6.87h0A4.16,4.16,0,0,1,18.49,4l9.78,1.17Z" transform="translate(0.04)"/><path class="cls-1" d="M43.11,5.2v8.38L0,13.67H0a4,4,0,0,1,4-4H23.37l5-6.82,12.47.06A2.31,2.31,0,0,1,43.11,5.2Z" transform="translate(0.04)"/><path class="cls-1" d="M43,12s-9.53.07-21.3.07S.36,12,.36,12s9.53-.08,21.3-.08S43,11.92,43,12Z" transform="translate(0.04)"/><polygon class="cls-1" points="67.61 48.48 80.89 41.02 82 42.6 73.8 47.48 73.74 49.59 67.61 52.93 67.61 48.48"/><rect class="cls-1" x="32.43" y="43.28" width="35.18" height="25.73"/><rect class="cls-1" x="32.43" y="43.28" width="35.18" height="25.73"/><rect class="cls-2" x="2.61" y="17.3" width="37.74" height="60.99"/><rect class="cls-1" x="0.63" y="16.45" width="14.61" height="17.11"/><path class="cls-1" d="M43.13,13.54v3.27a1.37,1.37,0,0,1-1.36,1.38H.58V13.54Z" transform="translate(0.04)"/><path class="cls-2" d="M3.73,20.75A1.21,1.21,0,1,0,5,19.54a1.21,1.21,0,0,0-1.23,1.21Z" transform="translate(0.04)"/><path class="cls-1" d="M43.1,52.74H.6V33.56H40.72a2.34,2.34,0,0,1,2.34,2.34h0V52.74Z" transform="translate(0.04)"/><path class="cls-1" d="M43.1,60.1H.6V54.44a1.29,1.29,0,0,1,1.29-1.29H41.25A1.85,1.85,0,0,1,43.1,55v5.1Z" transform="translate(0.04)"/><path class="cls-1" d="M43.1,74.45H.6V62.33a2,2,0,0,1,1.95-1.95h38.6a2,2,0,0,1,2,1.95V74.45Z" transform="translate(0.04)"/><path class="cls-1" d="M.61,50.87s9.5.08,21.21.08S43,51,43,50.87s-9.49-.07-21.21-.07S.61,50.83.61,50.87Z" transform="translate(0.04)"/><path class="cls-1" d="M.61,49.32s9.5.07,21.21.07S43,49.39,43,49.32s-9.49-.08-21.21-.08S.61,49.27.61,49.32Z" transform="translate(0.04)"/><path class="cls-1" d="M.61,47.76s9.5.07,21.21.07S43,47.83,43,47.76s-9.49-.09-21.21-.09S.61,47.72.61,47.76Z" transform="translate(0.04)"/><path class="cls-1" d="M.61,46.2s9.5.07,21.21.07S43,46.27,43,46.2s-9.49-.08-21.21-.08S.61,46.16.61,46.2Z" transform="translate(0.04)"/><path class="cls-1" d="M.54,74.44s9.54.07,21.31.07,21.31,0,21.31-.07-9.54-.07-21.31-.07S.54,74.4.54,74.44Z" transform="translate(0.04)"/></svg>