<?xml version="1.0" encoding="utf-8"?>
<!-- Generator: Adobe Illustrator 23.0.1, SVG Export Plug-In . SVG Version: 6.00 Build 0)  -->
<svg version="1.1" id="Capa_1" xmlns="http://www.w3.org/2000/svg" xmlns:xlink="http://www.w3.org/1999/xlink" x="0px" y="0px"
	 viewBox="0 0 82 78.3" style="enable-background:new 0 0 82 78.3;" xml:space="preserve">
<style type="text/css">
	.st0{fill:#FFFFFF;}
	.st1{fill:#B03E89;}
</style>
<title>Publicidad impresa blanco</title>
<polygon class="st0" points="5.4,0 5.4,2.5 6.3,2.9 5.1,2.9 4.9,4.5 26.9,6.8 29.1,3.4 "/>
<polygon class="st0" points="2,5.3 2.3,3.8 5,4.2 17.8,5.7 17.3,7.2 "/>
<path class="st0" d="M26.5,8.2L14,6.9l0,0C14.6,5,16.5,3.7,18.5,4l9.8,1.2L26.5,8.2z"/>
<path class="st0" d="M43.2,5.2v8.4L0,13.7l0,0c0-2.2,1.8-4,4-4h19.4l5-6.8l12.5,0.1C42.1,2.9,43.1,3.9,43.2,5.2z"/>
<path class="st0" d="M43,12c0,0-9.5,0.1-21.3,0.1S0.4,12,0.4,12s9.5-0.1,21.3-0.1S43,11.9,43,12z"/>
<polygon class="st0" points="67.6,48.5 80.9,41 82,42.6 73.8,47.5 73.7,49.6 67.6,52.9 "/>
<rect x="32.4" y="43.3" class="st0" width="35.2" height="25.7"/>
<rect x="32.4" y="43.3" class="st0" width="35.2" height="25.7"/>
<rect x="2.6" y="17.3" class="st0" width="37.7" height="61"/>
<rect x="0.6" y="16.5" class="st0" width="14.6" height="17.1"/>
<path class="st0" d="M43.2,13.5v3.3c0,0.8-0.6,1.4-1.4,1.4c0,0,0,0,0,0H0.6v-4.6H43.2z"/>
<path class="st1" d="M3.8,20.8C3.8,21.4,4.3,22,5,22s1.2-0.5,1.2-1.2c0-0.6-0.5-1.2-1.1-1.2C4.4,19.5,3.8,20.1,3.8,20.8
	C3.8,20.7,3.8,20.7,3.8,20.8L3.8,20.8z"/>
<path class="st0" d="M43.1,52.7H0.6V33.6h40.1c1.3,0,2.3,1,2.3,2.3l0,0l0,0L43.1,52.7L43.1,52.7z"/>
<path class="st0" d="M43.1,60.1H0.6v-5.7c0-0.7,0.6-1.3,1.3-1.3c0,0,0,0,0,0h39.4c1,0,1.8,0.8,1.8,1.9l0,0V60.1z"/>
<path class="st0" d="M43.1,74.4H0.6V62.3c0-1.1,0.9-1.9,2-2h38.6c1.1,0,2,0.9,2,2L43.1,74.4L43.1,74.4z"/>
<path class="st0" d="M0.7,50.9c0,0,9.5,0.1,21.2,0.1S43,51,43,50.9s-9.5-0.1-21.2-0.1S0.7,50.8,0.7,50.9z"/>
<path class="st0" d="M0.7,49.3c0,0,9.5,0.1,21.2,0.1s21.2,0,21.2-0.1s-9.5-0.1-21.2-0.1S0.7,49.3,0.7,49.3z"/>
<path class="st0" d="M0.7,47.8c0,0,9.5,0.1,21.2,0.1s21.2,0,21.2-0.1s-9.5-0.1-21.2-0.1S0.7,47.7,0.7,47.8z"/>
<path class="st0" d="M0.7,46.2c0,0,9.5,0.1,21.2,0.1s21.2,0,21.2-0.1s-9.5-0.1-21.2-0.1S0.7,46.2,0.7,46.2z"/>
<path class="st0" d="M0.6,74.4c0,0,9.5,0.1,21.3,0.1s21.3,0,21.3-0.1s-9.5-0.1-21.3-0.1S0.6,74.4,0.6,74.4z"/>
</svg>
