<svg id="Capa_1" data-name="Capa 1" xmlns="http://www.w3.org/2000/svg" viewBox="0 0 1178.35 1670.24"><defs><style>.cls-1{fill:#fff;}</style></defs><title>INVITACIONES BLANCO</title><path class="cls-1" d="M856.53,980.25H143.66c-26-10.07-34.19-29.4-34.09-56.59.69-175,.4-349.92.19-524.89,0-26.23,9.26-48,28-66s37.63-35.69,56-54c3.28-3.28,5.95-8.87,6-13.43.44-40.61.26-81.23.18-121.84,0-21.75,11.81-33.8,33.27-33.77,42.8.07,85.61.26,128.41-.17,4.91,0,10.77-2.68,14.48-6,14.4-12.94,28.38-26.38,42-40.14C437.35,44,457.33,26,485.08,19.75h30c27.88,6.07,47.68,24.42,67,43.73,13.25,13.27,27.2,25.85,40.4,39.17,5.2,5.26,10.47,7.46,18,7.39,42.2-.38,84.41-.21,126.62-.17,21.2,0,33,11.82,33,33,0,40.65-.17,81.29.27,121.93a21.39,21.39,0,0,0,5.7,13.55c17.66,17.7,35.74,35,54,52.05,20.91,19.46,30.34,43,30.29,71.73q-.54,266.37-.21,532.76A53.76,53.76,0,0,1,889.1,946C885.22,964,872.37,973.59,856.53,980.25Zm-628-841.67v11q0,173-.14,346c0,6.79,1.81,11.54,6.8,16.28q58.49,55.53,116.43,111.61c3.05,2.94,6.27,6.48,7.52,10.35,2.1,6.51-.19,12.42-6.43,16-7.58,4.39-13.56,1.29-19.24-4.17Q240.18,556,146.8,466.41c-2.33-2.23-4.73-4.38-8.08-7.49V901.73c3.52-3.12,6.06-5.23,8.43-7.5q76.48-73.34,152.92-146.71c45.78-43.94,91.33-88.12,137.39-131.75,37-35,88.49-34.71,125.69.16,13.45,12.61,26.57,25.57,39.89,38.33,2.15,2.07,4.49,3.93,7,6.1,3.78-3.59,7-6.58,10.09-9.59q66-63.32,131.91-126.64c30.44-29.22,61-58.35,91.26-87.73,20.9-20.26,25.77-49.61,8.7-71.2-14.68-18.57-33.17-34.11-51.76-52.78,0,23.09,0,43.3,0,63.51,0,15.32,0,30.64-.12,45.95-.08,10.54-5.81,17.29-14.37,17.27-8.39,0-13.7-6.16-14-16.45-.18-5-.15-10-.15-15q0-128.47.11-256.95V138.58ZM141.21,945c3.22,6.14,10.89,7.15,19.43,7.14q271-.12,542-.06,69.39,0,138.78,0c8.32,0,15.36-1.81,19.05-10.61-1.15-1.3-2.09-2.53-3.19-3.59Q702,788.91,546.74,640c-31.14-29.78-63.52-28.89-94.78,1.16Q316.08,771.75,180.18,902.33C166.74,915.31,154.89,930,141.21,945Zm719.88-43.13V459.06L630.42,680.45Zm-272-792.58c-20-18.32-37-36.78-56.93-51.39s-44-14.71-64,0-36.94,33-57,51.38ZM199.29,477.1V313.5c-15.75,15.19-30.59,29-44.84,43.38-21.15,21.38-21.73,54-.89,75.95C167.73,447.74,183.11,461.52,199.29,477.1Z" transform="translate(-109.57 -19.75)"/><path class="cls-1" d="M365.28,334c-21.83,0-42.7.14-63.57-.07-8.8-.09-18.77,2.39-24.45-7.51-5.88-10.27,2.37-16.92,7-24.31s9.42-14.75,14.55-21.81c3.07-4.22,2.87-7.45-.14-11.68-6.9-9.65-13.42-19.58-19.78-29.59-7.73-12.18-1.8-23.87,12.42-24,30-.24,60-.38,90,.15,23.5.42,41.39,19,42.91,43.57.31,5,.05,10,.05,15.66H574.93c.62-7.47.81-14.89,1.91-22.17,3.15-20.88,20.78-36.85,41.92-37.16,30-.43,60-.24,90,0,13.91.14,20.11,11.41,12.86,23.18-6.39,10.36-13.16,20.51-20.21,30.43-3.05,4.29-3,7.48,0,11.67,6.69,9.41,13.08,19.05,19.33,28.76,8.59,13.35,2.88,24.39-13.08,24.71-20,.4-40,.13-60,.15H634.94v13.09c0,27-18.3,46.84-45.29,47.05q-89.08.69-178.18-.06c-28.25-.24-46-19.52-46.19-48.07C365.26,342.32,365.28,338.65,365.28,334Zm240.19-29.47H394.26c0,13.78-.07,27.13,0,40.47.12,15.49,4.81,20.23,20,20.25q53.85.06,107.71,0c22.17,0,44.33.07,66.5,0,9.83-.06,16.37-4.37,16.73-12.62C606,336.73,605.47,320.86,605.47,304.48ZM395.12,274.39c0-5.79.28-11.05-.06-16.26-.52-7.87-5.06-13.53-12.73-13.76-21.32-.62-42.67-.21-65.52-.21,4.14,6.37,7.44,11.54,10.83,16.64,8.17,12.29,8.18,15.2-.11,27.68-3.34,5-6.66,10.08-10.45,15.8h47.63C366.61,276.69,366.61,276.69,395.12,274.39Zm288.35-30.18c-23.1,0-44.52-.61-65.84.51-4.32.23-10.21,6.32-11.93,11-2.08,5.62-.49,12.6-.49,17.06,9.44,2.54,19.73,2.37,24.55,7.42,5.11,5.35,5,15.65,7.28,24H683c-4.63-7.13-8.24-13.29-12.44-19-5.37-7.32-5.2-14.22,0-21.49C674.74,257.73,678.65,251.49,683.47,244.21Z" transform="translate(-109.57 -19.75)"/><path class="cls-1" d="M500.05,440.35q64.2,0,128.41.07c4,0,9-.44,11.75,1.66,4,3.1,9.1,8.42,8.9,12.56-.23,4.66-5.19,9.8-9.31,13.28-2.36,2-7.15,1.49-10.85,1.49q-128.88.16-257.77.17a51.08,51.08,0,0,1-6.55-.16c-8.44-1.06-14.38-7.23-14.26-14.67s6.17-13.36,14.71-14.28a62.15,62.15,0,0,1,6.55-.12Q435.85,440.33,500.05,440.35Z" transform="translate(-109.57 -19.75)"/><path class="cls-1" d="M500.58,544.64c-33.72,0-67.45.15-101.17-.18-4.68-.05-10.22-1.33-13.85-4.05-8.44-6.34-5.83-19.77,4.23-23.33,3.71-1.32,8-1.49,12-1.49q98.37-.14,196.73-.06c1.56,0,3.13-.07,4.68,0,9.84.62,16.41,6.32,16.6,14.38.2,8.4-6.69,14.6-17.07,14.65-29.66.14-59.33,0-89,0Z" transform="translate(-109.57 -19.75)"/></svg>