<?xml version="1.0" encoding="utf-8"?>
<!-- Generator: Adobe Illustrator 23.0.1, SVG Export Plug-In . SVG Version: 6.00 Build 0)  -->
<svg version="1.1" id="Capa_1" xmlns="http://www.w3.org/2000/svg" xmlns:xlink="http://www.w3.org/1999/xlink" x="0px" y="0px"
	 viewBox="0 0 1178.35 1670.24" style="enable-background:new 0 0 780.8 960.5;" xml:space="preserve">
<style type="text/css">
	.st0{fill:#B03E89;}
</style>
<title>INVITACIONES MORADO</title>
<g>
	<path class="st0" d="M255.7,314.2c-21.8,0-42.7,0.1-63.6-0.1c-8.8-0.1-18.8,2.4-24.5-7.5c-5.9-10.3,2.4-16.9,7-24.3
		s9.4-14.8,14.5-21.8c3.1-4.2,2.9-7.5-0.1-11.7c-6.9-9.6-13.4-19.6-19.8-29.6c-7.7-12.2-1.8-23.9,12.4-24c30-0.2,60-0.4,90,0.1
		c23.5,0.4,41.4,19,42.9,43.6c0.3,5,0,10,0,15.7h150.7c0.6-7.5,0.8-14.9,1.9-22.2c3.2-20.9,20.8-36.8,41.9-37.2c30-0.4,60-0.2,90,0
		c13.9,0.1,20.1,11.4,12.9,23.2c-6.4,10.4-13.2,20.5-20.2,30.4c-3,4.3-3,7.5,0,11.7c6.7,9.4,13.1,19,19.3,28.8
		c8.6,13.4,2.9,24.4-13.1,24.7c-20,0.4-40,0.1-60,0.1h-12.7v13.1c0,27-18.3,46.8-45.3,47c-59.4,0.5-118.8,0.4-178.2-0.1
		c-28.2-0.2-46-19.5-46.2-48.1C255.7,322.6,255.7,318.9,255.7,314.2z M495.9,284.8H284.7c0,13.8-0.1,27.1,0,40.5
		c0.1,15.5,4.8,20.2,20,20.2c35.9,0,71.8,0,107.7,0c22.2,0,44.3,0.1,66.5,0c9.8-0.1,16.4-4.4,16.7-12.6
		C496.4,317,495.9,301.1,495.9,284.8L495.9,284.8z M285.5,254.6c0-5.8,0.3-11-0.1-16.3c-0.5-7.9-5.1-13.5-12.7-13.8
		c-21.3-0.6-42.7-0.2-65.5-0.2c4.1,6.4,7.4,11.5,10.8,16.6c8.2,12.3,8.2,15.2-0.1,27.7c-3.3,5-6.7,10.1-10.5,15.8H255
		C257,256.9,257,256.9,285.5,254.6z M573.9,224.5c-23.1,0-44.5-0.6-65.8,0.5c-4.3,0.2-10.2,6.3-11.9,11c-2.1,5.6-0.5,12.6-0.5,17.1
		c9.4,2.5,19.7,2.4,24.5,7.4c5.1,5.4,5,15.6,7.3,24h46c-4.6-7.1-8.2-13.3-12.4-19c-5.4-7.3-5.2-14.2,0-21.5
		C565.2,238,569.1,231.7,573.9,224.5L573.9,224.5z"/>
	<path class="st0" d="M390.5,420.6c42.8,0,85.6,0,128.4,0.1c4,0,9-0.4,11.8,1.7c4,3.1,9.1,8.4,8.9,12.6c-0.2,4.7-5.2,9.8-9.3,13.3
		c-2.4,2-7.2,1.5-10.8,1.5c-85.9,0.1-171.8,0.2-257.8,0.2c-2.2,0.1-4.4,0-6.5-0.2c-8.4-1.1-14.4-7.2-14.3-14.7s6.2-13.4,14.7-14.3
		c2.2-0.2,4.4-0.2,6.5-0.1C304.9,420.6,347.7,420.6,390.5,420.6z"/>
	<path class="st0" d="M391,524.9c-33.7,0-67.4,0.2-101.2-0.2c-4.7,0-10.2-1.3-13.9-4c-8.4-6.3-5.8-19.8,4.2-23.3
		c3.7-1.3,8-1.5,12-1.5c65.6-0.1,131.2-0.1,196.7-0.1c1.6,0,3.1-0.1,4.7,0c9.8,0.6,16.4,6.3,16.6,14.4c0.2,8.4-6.7,14.6-17.1,14.7
		c-29.7,0.1-59.3,0-89,0H391z"/>
	<g>
		<path class="st0" d="M747,960.5H34.1C8.1,950.4-0.1,931.1,0,903.9C0.7,728.9,0.4,554,0.2,379c0-26.2,9.3-48,28-66s37.6-35.7,56-54
			c3.3-3.3,5.9-8.9,6-13.4c0.4-40.6,0.3-81.2,0.2-121.8c0-21.8,11.8-33.8,33.3-33.8c42.8,0.1,85.6,0.3,128.4-0.2
			c4.9,0,10.8-2.7,14.5-6c14.4-12.9,28.4-26.4,42-40.1c19.2-19.4,39.2-37.4,67-43.7h30c27.9,6.1,47.7,24.4,67,43.7
			C485.8,57,499.8,69.6,513,82.9c5.2,5.3,10.5,7.5,18,7.4c42.2-0.4,84.4-0.2,126.6-0.2c21.2,0,33,11.8,33,33
			c0,40.6-0.2,81.3,0.3,121.9c0.2,5,2.3,9.8,5.7,13.5c17.7,17.7,35.7,35,54,52c20.9,19.5,30.3,43,30.3,71.7
			c-0.4,177.6-0.4,355.2-0.2,532.8c0,3.7-0.3,7.5-1,11.1C775.6,944.2,762.8,953.8,747,960.5z M119,118.8v11c0,115.3,0,230.7-0.1,346
			c0,6.8,1.8,11.5,6.8,16.3c39,37,77.8,74.2,116.4,111.6c3,2.9,6.3,6.5,7.5,10.3c2.1,6.5-0.2,12.4-6.4,16
			c-7.6,4.4-13.6,1.3-19.2-4.2C161.7,566.1,99.5,506.4,37.2,446.7c-2.3-2.2-4.7-4.4-8.1-7.5V882c3.5-3.1,6.1-5.2,8.4-7.5
			c51-48.9,102-97.8,152.9-146.7c45.8-43.9,91.3-88.1,137.4-131.8c37-35,88.5-34.7,125.7,0.2c13.5,12.6,26.6,25.6,39.9,38.3
			c2.2,2.1,4.5,3.9,7,6.1c3.8-3.6,7-6.6,10.1-9.6c44-42.2,88-84.4,131.9-126.6c30.4-29.2,61-58.4,91.3-87.7
			c20.9-20.3,25.8-49.6,8.7-71.2c-14.7-18.6-33.2-34.1-51.8-52.8c0,23.1,0,43.3,0,63.5c0,15.3,0,30.6-0.1,46
			c-0.1,10.5-5.8,17.3-14.4,17.3c-8.4,0-13.7-6.2-14-16.5c-0.2-5-0.2-10-0.2-15c0-85.6,0-171.3,0.1-257v-12.2H119z M31.6,925.2
			c3.2,6.1,10.9,7.2,19.4,7.1c180.7-0.1,361.3-0.1,542-0.1c46.3,0,92.5,0,138.8,0c8.3,0,15.4-1.8,19-10.6c-1.2-1.3-2.1-2.5-3.2-3.6
			c-103.5-99.3-207-198.6-310.5-297.9c-31.1-29.8-63.5-28.9-94.8,1.2c-90.6,87.1-181.2,174.1-271.8,261.2
			C57.2,895.6,45.3,910.2,31.6,925.2z M751.5,882.1V439.3L520.8,660.7L751.5,882.1z M479.5,89.5c-20-18.3-37-36.8-56.9-51.4
			s-44-14.7-64,0s-36.9,33-57,51.4H479.5z M89.7,457.4V293.8c-15.8,15.2-30.6,29-44.8,43.4c-21.1,21.4-21.7,54-0.9,76
			C58.2,428,73.5,441.8,89.7,457.4z"/>
		<polygon class="st0" points="195.8,559.2 294,654 355,594 409,590 479.5,645 503,654 752.8,420.6 762,445 762,867 762,902 
			762,928 750.9,948 46,941 21,922 12,894 12,534 12,420.6 67,457.4 		"/>
		<polyline class="st0" points="277,89.5 326,42 359,20 402,14 441,39 479.5,74 502,96 484,106 277,94 		"/>
	</g>
</g>
</svg>
