<?xml version="1.0" encoding="utf-8"?>
<!-- Generator: Adobe Illustrator 23.0.1, SVG Export Plug-In . SVG Version: 6.00 Build 0)  -->
<svg version="1.1" id="Capa_1" xmlns="http://www.w3.org/2000/svg" xmlns:xlink="http://www.w3.org/1999/xlink" x="0px" y="0px"
	 viewBox="0 0 1178.35 1670.24" style="enable-background:new 0 0 1310.5 1669.6;" xml:space="preserve">
<style type="text/css">
	.st0{fill:#B03E89;}
	.st1{font-family:'MyriadPro-Black';}
	.st2{font-size:83.4755px;}
</style>
<title>OFFSET MORADO</title>
<path d="M1113.9,1638.3v11.7h-0.1v-11.7L1113.9,1638.3z"/>
<path d="M1310.5,1435.4h-5.4v-0.3h5.2L1310.5,1435.4z"/>
<path d="M1115.4,1623v-2.9h0.1v2.9H1115.4z"/>
<path d="M1115.5,1666.4v3.1h-0.1L1115.5,1666.4L1115.5,1666.4z"/>
<path class="st0" d="M786.2,0c6.6,1.5,13.3,2.5,19.7,4.5c32.5,10.1,56.2,31.4,74.3,59.4c24.7,38.2,34.7,80.6,34.3,125.7
	c-0.4,37.4-8.4,73.1-26.3,106.1c-16.9,31.2-40.1,56.1-73.6,69.9c-0.6,0.3-1.2,0.7-1.7,1.1l8.7,10.6c16.8,20.6,31.9,42.6,45,65.8
	c31.5,54.8,50.6,113.8,61.3,175.8c9.2,53.2,10.8,106.9,6,160.7c-3.3,37.9-10.5,75.3-21.5,111.7c-1.4,4.6-3.5,5.9-8.2,5.9
	c-173.6-0.1-347.1-0.1-520.6-0.1H282.8c2.1-7.5,4.2-14.6,6.2-21.7c9.7-35,16-70.6,17.7-106.8c1.3-28.2,2-56.6,0.6-84.8
	c-2.5-49.6-11.5-98.6-26.9-145.7c-19-58.9-47.3-112.9-86.6-160.9c-1.9-2.7-5-4.2-8.3-4c-17.2,0.2-34.4,0.5-51.5-0.1
	c-19.9-0.8-38.2-7.3-54.8-18.3c-31.6-20.9-52-50.6-64.4-85.7C-7.6,204.9-5,141.7,25.2,80.5c13.7-27.8,33.5-50.7,60.9-66.2
	C98.2,7.4,111.5,2.9,125.3,1c1.3-0.3,2.5-0.6,3.8-1H786.2z M871.4,845.5c0.4-1.6,0.8-2.8,1.1-4.1c9.9-46.1,14-93.2,12.2-140.3
	c-1.9-51.2-9.8-101.3-26.2-149.8c-22.8-67.2-55.2-128.7-111.2-174.9c-2.2-1.8-4.9-2.9-7.8-3c-159.3-0.1-318.6-0.2-477.9-0.1h-5.4
	c96.4,144.9,120.2,303.4,93.2,472.3L871.4,845.5z M542,84.3H311.4c-1.7-0.1-3.3,0-5,0.1c-6.9,0.8-11.8,7-11.1,13.9
	c0.1,0.7,0.2,1.4,0.4,2c1.7,6.5,6.6,9.5,15.5,9.5c62,0,124,0,186,0h269.5c3.3,0.1,6.6,0,9.9-0.2c6.9-0.5,12.1-6.5,11.6-13.5
	c0-0.2,0-0.4-0.1-0.6c-0.7-7.1-6.2-11.3-14.9-11.3L542,84.3z M187.4,187.2c-0.4-15.3-3.6-29.4-11.7-42.2
	c-17.2-27.5-49.8-29.3-69.1-3.7c-19.7,26.2-18.8,68,2.1,93.2c16.3,19.6,41.5,21,59.4,2.9C182,223.5,186.6,205.9,187.4,187.2z"/>
<path class="st0" d="M260.7,800.6h-9.5c-34.6,0-69.1-0.6-103.7,0.2c-42,1-74.7-16.6-100.9-48c-23.8-28.5-37-61.8-42.9-98.2
	c-7.7-47.3-2.8-93.2,16.8-137.2c9.9-22.3,23.3-42.2,41.7-58.5c23.5-20.8,50.6-32.2,82.4-31.8c12.1,0.2,24.1,0.1,36.2,0
	c3.6,0,5.7,1.2,7.5,4.3c32.8,54.9,54.1,114,65.8,176.8c7.8,41.3,11.3,83.3,10.3,125.3C264,755.6,262.1,777.8,260.7,800.6z
	 M136.9,677.3c14.6,0,24.3-4.9,32.1-13.5c21.6-23.9,24.6-64.6,6.7-91.4c-7.4-11.1-16.8-19.7-30.6-21.5c-18-2.4-31,6.4-40.5,20.6
	c-17,25.3-16.4,61.6,1.2,86.5C114,669.6,124.9,677.1,136.9,677.3z"/>
<text transform="matrix(1 0 0 1 415.3655 550.5205)"><tspan x="0" y="0" class="st0 st1 st2">NOTA DE </tspan><tspan x="-12.6" y="100.2" class="st0 st1 st2">REMISIÓN</tspan></text>
</svg>
