<svg id="Capa_1" data-name="Capa 1" xmlns="http://www.w3.org/2000/svg" viewBox="0 0 1310.49 1669.57"><defs><style>.cls-1{fill:#b03e89;}</style></defs><title>OFFSET MORADO</title><path d="M1138.29,1658.33V1670h-.11v-11.65Z" transform="translate(-24.39 -19.99)"/><path d="M1334.88,1455.39h-5.41v-.34h5.15Z" transform="translate(-24.39 -19.99)"/><path d="M1139.78,1643v-2.92h.12V1643Z" transform="translate(-24.39 -19.99)"/><path d="M1139.88,1686.44v3.12h-.1v-3.13Z" transform="translate(-24.39 -19.99)"/><path class="cls-1" d="M810.55,20c6.58,1.48,13.31,2.51,19.73,4.51,32.47,10.11,56.25,31.41,74.35,59.41,24.7,38.22,34.73,80.61,34.29,125.75-.37,37.45-8.39,73.09-26.29,106.14C895.72,347,872.57,371.9,839,385.69a18,18,0,0,0-1.72,1.06L846,397.31a474.92,474.92,0,0,1,45,65.78c31.45,54.82,50.63,113.84,61.28,175.8,9.15,53.24,10.8,106.88,6,160.66a546.26,546.26,0,0,1-21.48,111.68c-1.41,4.64-3.46,5.93-8.22,5.93Q668.25,917,408,917.05H307.23c2.13-7.48,4.2-14.56,6.16-21.67,9.67-35,16-70.6,17.66-106.83,1.28-28.22,2-56.57.64-84.76a559.73,559.73,0,0,0-26.88-145.73c-19.05-58.94-47.27-112.92-86.63-160.93a9.51,9.51,0,0,0-8.32-4c-17.17.19-34.35.53-51.49-.12-19.91-.76-38.19-7.33-54.78-18.31C72,353.78,51.55,324.13,39.24,289,16.78,224.89,19.43,161.66,49.62,100.44c13.71-27.8,33.52-50.67,60.91-66.17A107.75,107.75,0,0,1,149.66,21a32.37,32.37,0,0,0,3.79-1Zm85.23,845.47c.43-1.58.84-2.83,1.12-4.12A559.62,559.62,0,0,0,909.05,721c-1.9-51.16-9.77-101.29-26.21-149.76C860,504,827.67,442.54,771.65,396.31a13.32,13.32,0,0,0-7.79-3q-238.93-.21-477.86-.12h-5.4C377,538.09,400.83,696.61,373.78,865.46ZM566.41,104.34H335.76a40.81,40.81,0,0,0-4.95.14,12.54,12.54,0,0,0-10.66,15.89c1.72,6.46,6.61,9.54,15.45,9.54q93,0,186,0H791.08a96.29,96.29,0,0,0,9.91-.21,12.58,12.58,0,0,0,11.57-14.06c-.67-7.06-6.18-11.29-14.9-11.29ZM211.74,207.2c-.38-15.28-3.64-29.36-11.68-42.21-17.19-27.52-49.8-29.3-69.11-3.67-19.74,26.19-18.78,68,2.13,93.21,16.29,19.6,41.49,21,59.45,2.9C206.37,243.5,211,225.89,211.74,207.2Z" transform="translate(-24.39 -19.99)"/><path class="cls-1" d="M285.11,820.56h-9.46c-34.56,0-69.15-.63-103.69.17-42,1-74.72-16.59-100.89-48-23.75-28.53-37-61.85-42.86-98.21C20.55,627.18,25.36,581.28,45,537.3c9.93-22.28,23.35-42.22,41.72-58.47,23.48-20.78,50.65-32.19,82.37-31.75,12.08.17,24.15.13,36.22,0,3.56-.05,5.66,1.18,7.51,4.27,32.84,54.87,54.07,114,65.81,176.76a601,601,0,0,1,10.34,125.27C288.38,775.59,286.45,797.79,285.11,820.56ZM161.31,697.31c14.65,0,24.33-4.9,32.07-13.46,21.6-23.89,24.57-64.6,6.74-91.4-7.39-11.1-16.84-19.73-30.63-21.55-18-2.39-31,6.43-40.51,20.6-17,25.26-16.38,61.58,1.2,86.5C138.37,689.6,149.27,697.11,161.31,697.31Z" transform="translate(-24.39 -19.99)"/><path class="cls-1" d="M392.86,470.5h7.4c56.58,0,113.15.06,169.72-.12,4,0,5.74,1.38,7.38,4.72,23.54,48.06,39.25,98.66,49.5,151.06.72,3.66,1.48,7.32,2.27,11.26H451.37C441.35,578.85,420.68,524,392.86,470.5Zm80.63,51.4c6.29,20.94,12.47,41.27,18.47,61.66.79,2.71,2.3,3.07,4.68,3.06,15.38-.07,30.75,0,46.13,0H564.3a15.86,15.86,0,0,0-.36-3.29c-6.82-19.61-13.73-39.18-20.52-58.8-1-2.86-2.95-3-5.4-3-20.33.05-40.67,0-61,0A33.88,33.88,0,0,0,473.49,521.9Z" transform="translate(-24.39 -19.99)"/><path class="cls-1" d="M648.77,758.21q-44.16,0-88.31,0c-29.25.06-58.49.26-87.74.28-12.71,0-23.46-8.86-25.44-20.68-2.21-13.21,4.72-25.09,17.38-29.12a34.05,34.05,0,0,1,10.23-1.3q58.54-.17,117.1-.12,115.51,0,231,.05c15.14,0,25.07,7.88,27.54,21.75,2.61,14.56-8.81,28.91-23.65,29.37-9.25.29-18.52.08-27.79.08H648.77Z" transform="translate(-24.39 -19.99)"/><path class="cls-1" d="M749,640.38q-30.24,0-60.49,0c-15.41,0-26.82-10.66-26.93-25-.12-15.27,10.88-26.17,26.8-26.2q61-.15,122,0c14.63,0,25.5,9.53,26.94,23.14a25.73,25.73,0,0,1-20.41,27.63,32.31,32.31,0,0,1-6.89.51Q779.46,640.42,749,640.38Z" transform="translate(-24.39 -19.99)"/><path class="cls-1" d="M710.5,522.26c-19.83,0-39.67-.45-59.49.14-17.78.52-28.46-13-28.26-25.89.24-15.21,11.65-25.66,28.51-25.66q52.31,0,104.61,0c6.93,0,13.92-.22,20.77.58a25.13,25.13,0,0,1,21.94,26.26,25.58,25.58,0,0,1-25.11,24.48C752.48,522.38,731.49,522.25,710.5,522.26Z" transform="translate(-24.39 -19.99)"/></svg>