<svg id="Capa_1" data-name="Capa 1" xmlns="http://www.w3.org/2000/svg" viewBox="0 0 1178.35 1670.24"><defs><style>.cls-1{fill:#fff;}</style></defs><title>PROMOCIONALES BLANCO</title><path d="M1138.29,1658.33V1670h-.11v-11.65Z" transform="translate(-156.53 -19.32)"/><path d="M1334.88,1455.39h-5.41v-.34h5.15Z" transform="translate(-156.53 -19.32)"/><path d="M1139.78,1643v-2.92h.12V1643Z" transform="translate(-156.53 -19.32)"/><path d="M1139.88,1686.44v3.12h-.1v-3.13Z" transform="translate(-156.53 -19.32)"/><path class="cls-1" d="M679.3,555.4c92.67,1.72,159.22,72.45,163.91,155.5,5.13,90.78-67.42,173.06-163.64,173.46-.66,18.79-6.39,35.94-18.42,50.56-16.21,19.69-37.17,30.7-62.76,30.75q-164.62.36-329.23,0c-45.57-.06-81.83-36.78-81.85-82.48q-.08-183.51-.05-367c0-24.7,17.58-42.45,42.24-42.45q203.67,0,407.36,0c24.83,0,42.31,17.49,42.43,42.26C679.35,529,679.3,542,679.3,555.4Zm.38,246.46c29.86-1.49,53.35-13.74,68.89-39,17.7-28.74,17.56-58.37-.24-86.94-15.52-24.89-38.93-37-68.65-38.33Z" transform="translate(-156.53 -19.32)"/><path class="cls-1" d="M194.7,174.35c-2.73-9.65-5.26-19-8-28.21-2.45-8.24-2.55-8.38,5.69-8.69,20-.75,39.7-3.59,58.51-10.69,9.73-3.67,19.09-8.3,29.42-12.85l-10.66-9c-1.86.94-3.66,1.79-5.42,2.74a148,148,0,0,1-76.52,17.71c-5-.19-5.27-.28-6.45-4.8-4.74-18.14-8.72-36.41-9.07-55.26-.14-7.21.12-14.37,2.39-21.35s6.56-11.54,13.88-13.45c12.1-3.15,24.18-6.46,36.13-10.16,5.86-1.82,11.19-1.21,15.75,2.35a80,80,0,0,1,13.28,12.71c8,10,13.32,21.7,17.7,33.72a21.74,21.74,0,0,0,7.05,9.79C294,91.66,309.47,104.58,325,117.44c1.27,1,2.48,2.17,3.79,3.16,4.46,3.36,6,7.63,4.31,13s-6.83,10.16-12.06,10a15.11,15.11,0,0,1-8.27-3.21c-8.6-6.7-16.89-13.8-25.3-20.75-.94-.78-1.92-1.52-3.06-2.42-2.48,2-2.05,4.26-1.28,6.61,2.58,7.79,5.17,15.58,7.68,23.13,7.82,1.16,15.16,1.89,22.34,3.37,15.4,3.19,29.2,9.68,40.43,21a43,43,0,0,1,11.82,20.51c4.69,19.15,10.15,38.12,15,57.24a59.59,59.59,0,0,1,1.91,14.55q.19,93.24.08,186.48v12.09H225.82c-.73-2-1.67-4.19-2.4-6.48-21.22-66.56-42.29-133.18-63.71-199.67-5.7-17.66-3.65-34,5.47-49.81,6.57-11.39,15.46-20.74,25.68-28.89C192,176.49,193.11,175.61,194.7,174.35ZM244.29,55.71c-1.59-4.94-2.27-9.83-7.53-12.33a31.63,31.63,0,0,0-35.27,6.07c-9.44,9.35-12.07,24.21-6,35.74a12.21,12.21,0,0,0,5.61,5.19c12,5.06,23.23,3.23,33.24-5.16a49.37,49.37,0,0,0,4.78-5.28C230.38,73.27,232.17,61.57,244.29,55.71Z" transform="translate(-156.53 -19.32)"/><path class="cls-1" d="M550.2,356.22c12.28-26,24.69-50.4,45.32-69.44,22.87-21.1,50.75-27.9,80.92-27.36,8.64.15,17.25,2.06,25.9,2.39,9.68.37,13.13,6.47,12.32,14.31-1.43,14-2.49,28.44-7,41.57-10.46,30.54-22.89,60.41-34.72,91.07C632.74,389.79,597.15,361.54,550.2,356.22Z" transform="translate(-156.53 -19.32)"/><path class="cls-1" d="M785.44,446.83,679.55,413.51c15.39-49.5,44.22-92.92,43-145,36,10.38,63.89,44.61,68.95,83.78C795.6,383.76,791.41,414.54,785.44,446.83Z" transform="translate(-156.53 -19.32)"/><path class="cls-1" d="M516.89,441.3q3.75,2.88,7.58,5.53H675.23C685,442,694.56,436.55,704,430.9c-25.43-12.92-50.42-26.18-75.91-38.38-18.73-9-37.77-17.55-57.37-24.25-9.7-3.31-21.83-4.9-31.42-2.19-27.41,7.75-54.08,18.11-81.33,27.54,6.46,5.06,12.64,9.73,18.64,14.63C490.06,419.23,503.14,430.7,516.89,441.3Z" transform="translate(-156.53 -19.32)"/><path class="cls-1" d="M461.66,361.57H415.35c-.09-2.14-.25-4-.25-5.87q0-80.93,0-161.86c0-9.48,1.52-11,10.87-11s18.85-.07,28.28,0c5.37.06,7.73,2.36,7.73,7.67q.06,84.33,0,168.67A18,18,0,0,1,461.66,361.57Z" transform="translate(-156.53 -19.32)"/><path class="cls-1" d="M410.58,191.21v28.43c-12.47-1.79-12.82-1.73-12.62,10.71.43,28.12,1.13,56.24,1.85,84.35.22,8.7.87,9.11,9.43,8.71,1.87,4.68,0,11-4.11,13.14-3.7,2-6.35.11-7.37-3.26a70,70,0,0,1-2.36-12.79c-3.38-31.77-6.55-63.56-10-95.33-1.71-15.67,3.87-23.54,20.91-32.36A39.51,39.51,0,0,1,410.58,191.21Z" transform="translate(-156.53 -19.32)"/><path class="cls-1" d="M453.51,178.41H424c0-6.8-.22-13.36.08-19.89.17-3.69,3.08-5.45,6.48-5.61,5.38-.25,10.79-.23,16.18,0,3.7.16,6.5,2.28,6.7,6.06C453.76,165.33,453.51,171.73,453.51,178.41Zm-2.86-2a11,11,0,0,0,.46-1.66c0-3.48.07-7,.06-10.46,0-7.71-2-9.4-9.91-8.26V176.4Z" transform="translate(-156.53 -19.32)"/><path class="cls-1" d="M415.35,462.24h46c.27-30.11.42-60.22.66-90.34,0-1.83-.15-3.67-.24-5.45H415.09C415.13,398.44,415,430.33,415.35,462.24Z" transform="translate(-156.53 -19.32)"/></svg>