<svg id="Capa_1" data-name="Capa 1" xmlns="http://www.w3.org/2000/svg" viewBox="0 0 899.27 899.58"><defs><style>.cls-1{fill:#b03e89;}.cls-2{fill:#fff;}</style></defs><title>PUBLICIDAD DIGITAL MORADO</title><path class="cls-1" d="M51,232a29,29,0,0,0,.87-4.34c.68-14.1,7.74-24.27,19.72-30.95,3.3-1.84,7.64-2.51,11.5-2.53q76.49-.48,153-.57c27.5-.05,55,.31,82.5.14,5.84,0,10.64,1.32,15.1,5,9.88,8.19,16.39,17.49,16.21,31.39-.7,52.16-.74,104.33-.87,156.49a18.84,18.84,0,0,1-3.73,11.5c-8.58,12-20,18.21-34.83,18-11.29-.14-22.59,0-34.21,0V455h18.56c43.17,0,86.33.21,129.5-.12,13.43-.1,23,6.2,31.4,15.56,4.16,4.64,5.73,9.89,5.74,16.33.08,53,.53,106,.85,159,.08,13.43-14.71,30.27-28.12,31.28-11.79.88-23.63.91-35.45,1.27-3.14.1-6.28,0-10.28,0v74.25c-2.19-2-3.51-3-4.72-4.25q-33.31-33.15-66.56-66.37a11.23,11.23,0,0,0-8.74-3.62q-50.75,0-101.49-.35c-4,0-8-.72-12-.73-16.29,0-29.56-15.85-30.06-30.61-.63-18.64-1.36-37.29-1.41-55.94-.08-33.5.43-67,.4-100.49a26.73,26.73,0,0,1,4.17-15c7.7-12.1,17.45-20,33-19.54,11.6.37,23.26-.86,36.22-1.44a53.91,53.91,0,0,0-3.48-4.56c-10.17-10.34-20.25-20.76-30.69-30.81-1.73-1.66-5.06-2.3-7.66-2.33-38.49-.47-77-.7-115.48-1.19a17.2,17.2,0,0,1-8.23-2.64A44.56,44.56,0,0,1,53,391.1c-1.74-4.26-1.41-9.37-2-14.1ZM203.84,602.63l-.65,1.15c1.46,1.78,2.79,3.69,4.4,5.34a125.2,125.2,0,0,0,33.46,24.18c23.75,12,48.89,13.75,74.48,8.64,36.77-7.36,65.06-26.55,80.61-61.67,2.69-6.06,5-10,12.4-10,3.73,0,7.56-2.3,11.14-4,1.74-.82,3-2.64,5.57-5l-18.86-1.72V558a26.64,26.64,0,0,0,17-12.46c-4.84,0-9.35.86-13.91,1.41-7.61.92-9.93-.37-12.5-7.53a56.23,56.23,0,0,0-15.81-23.32c-7.2-6.44-15.18-11.49-26.4-12.44,4.1-2,7-3.13,9.66-4.76,1.4-.87,2.27-2.57,3.38-3.9-1.59-.58-3.14-1.57-4.75-1.68-4.69-.33-4.7-.19-6-4.06-3.31,1.08-6.61,3-9.93,3-6.2,0-9.65,3.66-13.16,7.76-10,11.65-16.72,25.2-23,39-.79,1.72-1.7,3.38-2.62,5.19-3.36-2.93-5.86-6.17-9.15-7.8-19.65-9.77-39.47-19.19-59.29-28.62-1.64-.78-3.67-.73-6-1.16.07,11.91,9,18.32,14.41,26.72-9.56,2.62-10.56,5.08-4.35,12.53,3.91,4.7,9,8.43,13.79,12.81-1.3.92-3.08,2.35-5,3.53-3.51,2.14-3.81,4.76-.53,7A98.44,98.44,0,0,0,267,577.86c3.52,1.57,4.86,2.52,2.66,6.36-3.33,5.81-1.27,10.17,5.23,12.24,2.25.72,4.55,1.26,7.82,2.15C256.69,619.49,230.75,619.93,203.84,602.63ZM275,305.09h.08c0-16-.06-32,0-48,.05-10.49-5.14-18-13.31-23.81-2.49-1.76-5.46-4-8.23-4.06q-48.48-.41-97-.06c-11.39.08-21.92,3.41-27,14.54a49.68,49.68,0,0,0-4.26,19.75c-.2,29.65.66,59.31.43,89-.11,13.12,13.72,26.28,25.93,26.27,33.15,0,66.31.26,99.46-.07,11.87-.11,23.43-11.73,23.76-23.58C275.39,338.41,275,321.75,275,305.09Z" transform="translate(-51 -41.8)"/><path class="cls-1" d="M576.53,602.05v-73.7c-9.79,0-19.07,0-28.34,0-3.83,0-7.67-.36-11.5-.21-10.26.41-18.33-3.69-25-11.3-6.43-7.35-10.3-15.12-10.22-25.52.35-46.65,0-93.32-.09-140,0-3.66.28-7.33.55-11,1.52-20.77,15.17-33.95,36.08-34.24,30.82-.43,61.65-.58,92.48-.69,30-.1,60,0,90,0,1.62,0,3.23-.16,5.13-.26V266.94c-4.9,0-9.52.17-14.13,0-10-.44-20.06-.26-29.87-1.78a33.7,33.7,0,0,1-28.67-33.39q-.29-78,0-155.95C653,59.26,665.63,45,682.14,43.85c19.92-1.33,40-1.64,59.93-1.65q89,0,178,.83c4.93,0,10.44,3.3,14.59,6.49,9.44,7.29,15.8,16.12,15.63,29.39-.56,44.16-.17,88.32-.36,132.48a208.85,208.85,0,0,1-1.64,27.4c-1.92,13.93-14.12,25.44-28.14,26.1-22.79,1.07-45.62,1.43-68.44,1.87-15.66.29-31.33.13-47,.35-2,0-4.48.63-5.79,1.92-10.92,10.76-21.62,21.74-32.37,32.67a25.55,25.55,0,0,0-1.85,2.58c2.23.67,4,1.34,5.88,1.74,17.08,3.62,28.31,16.18,28.41,33.64.28,50.66.06,101.31,0,152a21.52,21.52,0,0,0,0,3.5c1.77,10.61-4,17.93-11.29,24-7.48,6.22-15.81,10.18-26.31,10-35.16-.49-70.33-.16-105.49-.29a10.57,10.57,0,0,0-8.26,3.49C626,554.25,604.11,576,582.37,597.86c-1.58,1.59-2.59,3.74-3.87,5.63Zm56.19-168.42c0-6.79.07-12.95,0-19.1-.05-2.56,1-3.58,3.5-3.6,3.33,0,6.66-.49,10-.38,4.12.14,5.31-1.86,5.61-5.65a88.56,88.56,0,0,1,2.34-15.75c2.39-8.85,7.71-16.17,16.82-18.2s18.69-2,28.44-2.9v25.87c-6.31,0-12.27-.11-18.23,0-5,.12-7.57,3-7.86,7.91-.16,2.91,0,5.84,0,9.32h26.08V433.7L673.77,435v56.57a27.75,27.75,0,0,0,3,.29c8.33-.14,16.69.14,25-.57,15.48-1.31,23.24-9.36,23.39-25q.47-49.48,0-99c-.13-14.91-8.47-23.67-23.3-25.42a155.64,155.64,0,0,0-17.94-.91c-25.66,0-51.32-.08-77,.18-13,.14-24.29,4.34-29,17.78a59.71,59.71,0,0,0-2.81,18.6c-.3,26.16-.17,52.32-.09,78.48a108.26,108.26,0,0,0,.91,12.45c1.62,13.83,9.08,21.79,22.91,22.48,17.12.87,34.3.6,51.45.79a1.23,1.23,0,0,0,.81-.33V435Zm93.42-325.54c33.11,1.68,61.82,13,85.18,36.07,23.61,23.36,34,52.68,36,85.35H877c-2.89-46.78-19.61-86.4-56.14-116.36C793.41,90.62,761.61,80,726.14,78.61Zm.06,51.17c1.73.1,3.37.07,5,.32,27.15,4.16,48.45,16.54,58.78,43.27,2.9,7.53,4.18,15.71,5.91,23.66.51,2.31,1,3.59,3.69,3.48,6.48-.26,13-.05,19.47-.54s6.73-.86,6-7.31c-4.56-40.88-25.72-69.5-63.73-85.38-11.1-4.63-22.84-6.55-35.1-7.23Zm20,30.48c-10.56-.24-20,8.12-20.15,17.82-.18,12.13,7.78,21.31,18.73,21.59,11.24.29,20.8-8.6,21-19.56C766.06,198.17,758,190,746.19,189.74Z" transform="translate(-51 -41.8)"/><path class="cls-1" d="M726,567.79h37c0,1.93,0,3.68,0,5.42q-.48,170-1,339.95a13,13,0,0,1-2.09,6.87A65.94,65.94,0,0,1,751,930.85a35.87,35.87,0,0,1-26.34,10.53q-224-.5-447.94,0c-10.81,0-18.94-3.79-26.31-10.66-7-6.53-11-13.85-10.92-24.34.2-60.82-.41-121.65-.74-182.47,0-2.11,0-4.22,0-6.62h36.89v111.8H726ZM501,851c-19.49-.15-37.91,18.07-38,37.6C462.87,909,480,926.17,500.5,926.26c20.87.1,38.24-16.93,38.35-37.49C539,871.25,521.21,850,501,851Z" transform="translate(-51 -41.8)"/><path class="cls-1" d="M613.06,42.1V154H239c0-11-.09-21.72,0-32.49.15-15,.93-30,.55-45-.36-14.09,7.56-22.4,18.22-29.15C264.54,43.1,272.34,43,280,42.91c50.64-.37,101.28-.86,151.92-1,58.81-.17,117.62,0,176.43,0C609.84,41.86,611.3,42,613.06,42.1Zm-112.3,76v-1.19c21.48,0,43,.11,64.46-.06,7.48-.06,15-.85,22.44-1.23,4.21-.21,6.46-2.37,6.68-6.52.26-5,.54-10,.5-15-.09-12.84-1.14-14.34-13.85-14.44q-74.71-.59-149.42-.57c-6.29,0-12.61,1-18.85,2-4.75.73-7.23,3.81-6.9,8.81.3,4.66.45,9.32.88,14,1,11,1.86,11.84,12.62,12.14Q460,117.16,500.76,118.11Z" transform="translate(-51 -41.8)"/><path class="cls-2" d="M500.76,118.11q-40.71-1-81.43-2.08c-10.76-.3-11.61-1.17-12.62-12.14-.43-4.64-.58-9.3-.88-14-.33-5,2.15-8.08,6.9-8.81,6.24-1,12.56-2,18.85-2q74.7,0,149.42.57c12.71.1,13.76,1.6,13.85,14.44,0,5-.24,10-.5,15-.22,4.15-2.47,6.31-6.68,6.52-7.48.38-15,1.17-22.44,1.23-21.49.17-43,.06-64.46.06Z" transform="translate(-51 -41.8)"/><path class="cls-1" d="M139.89,290h20.93c0,5.91.54,11.58-.09,17.13-2,17.93,18.81,40.92,43.94,38.19,23.73-2.57,40.66-25.19,36.72-48.82-.32-2-.42-3.95-.67-6.37h18.8a19.53,19.53,0,0,1,.47,3.16c-.18,19.64-.19,39.29-.74,58.92-.22,7.61-3.35,10.6-11,10.66q-47.68.33-95.39,0c-6.91-.05-10.4-3.08-10.7-9.45C141.14,332.51,140.62,311.57,139.89,290Z" transform="translate(-51 -41.8)"/><path class="cls-1" d="M175.84,303.61c0-14.32,9.86-24.29,24.09-24.25,15.67.05,26.42,10.51,26.38,25.68,0,13.64-11.86,25.07-25.89,25S175.88,318.74,175.84,303.61Z" transform="translate(-51 -41.8)"/><path class="cls-1" d="M233.87,271.79V247.68h23.94v24.11Z" transform="translate(-51 -41.8)"/><rect class="cls-1" x="351.86" y="30.95" width="198.25" height="51.75"/></svg>