<?xml version="1.0" encoding="utf-8"?>
<!-- Generator: Adobe Illustrator 23.0.1, SVG Export Plug-In . SVG Version: 6.00 Build 0)  -->
<svg version="1.1" id="Capa_1" xmlns="http://www.w3.org/2000/svg" xmlns:xlink="http://www.w3.org/1999/xlink" x="0px" y="0px"
	 viewBox="0 0 1178.35 1670.24" style="enable-background:new 0 0 1251.2 1637.8;" xml:space="preserve">
<style type="text/css">
	.st0{fill:#B03E89;}
</style>
<title>SELLOS MORADO</title>
<path d="M1054.7,1606.6v11.7h-0.1v-11.7L1054.7,1606.6z"/>
<path d="M1251.2,1403.7h-5.4v-0.3h5.2L1251.2,1403.7z"/>
<path d="M1056.2,1591.3v-2.9h0.1v2.9H1056.2z"/>
<path d="M1056.2,1634.7v3.1h-0.1L1056.2,1634.7L1056.2,1634.7z"/>
<path class="st0" d="M319.3,557.7c-5.3-50.3-8.8-98.1-15.6-145.3c-12-83.7-26-167.1-39.2-250.7c-12.4-78.6,41.9-137.3,106-155.4
	C449.2-16,534.8,22.9,561.8,93.8c11.4,29.9,8.8,60.1,4.1,90.3c-13.3,85.8-28.2,171.4-40.9,257.3c-5.6,37.7-7.2,76-10.9,116.4
	c17.7,0,32.2-0.1,46.7,0c19.7,0.2,25,5.2,26.7,24.2c4.5,51.3,51.1,88.9,110,88.8c36.7,0,73.5,0,110.2,0.3
	c20.6,0.2,24.9,4.6,24.9,25.2c0.1,48.6,0.1,97.2,0,145.8c-0.1,20.3-5.8,26.2-26.3,26.2c-260,0.1-519.9,0.1-779.9,0
	c-20.5,0-26.3-6-26.4-26.1C0,793.1,0,744,0.1,694.8c0.1-18.4,4.7-23.4,23-23.7c36.2-0.4,72.3-0.4,108.5-0.3
	c35.5,0.1,68.3-8.3,90.3-37.5c11-14.6,17.7-33.5,22.3-51.5c4.4-17.2,7.9-23.7,25.9-24.1C284.8,557.5,299.4,557.7,319.3,557.7z
	 M791.9,707.3H41.5V831h750.4V707.3z M358.5,555.1h114.8c4.8-47.6,7.9-93.9,14.5-139.6c12.2-84.3,25.6-168.4,40.1-252.3
	c13.2-75.8-47.5-130.3-117.3-126.5c-65.2,3.6-112.2,51.6-107.2,110.9c2.2,26.4,6.6,52.6,10.6,78.8c12.1,79.2,25,158.2,36.5,237.5
	C354.8,493.9,355.9,524.3,358.5,555.1z M247.3,670h338.1l-41.7-74.5H289.2C274,622.4,260.7,646,247.3,670z"/>
<rect x="29" y="698" class="st0" width="783" height="153"/>
<polygon class="st0" points="296,96 322,62 381,31 429,31 500,50 535,96 547,146 529.7,217 513,330 506,412 506,489 497,530 
	485,570 447,570 354,570 316,320 285,155 294,115 "/>
</svg>
