<svg id="Capa_1" data-name="Capa 1" xmlns="http://www.w3.org/2000/svg" viewBox="0 0 1178.35 1670.24"><defs><style>.cls-1{fill:#b03e89;}</style></defs><title>SELLOS MORADO</title><path d="M1138.29,1658.33V1670h-.11v-11.65Z" transform="translate(-83.63 -51.73)"/><path d="M1334.88,1455.39h-5.41v-.34h5.15Z" transform="translate(-83.63 -51.73)"/><path d="M1139.78,1643v-2.92h.12V1643Z" transform="translate(-83.63 -51.73)"/><path d="M1139.88,1686.44v3.12h-.1v-3.13Z" transform="translate(-83.63 -51.73)"/><path class="cls-1" d="M402.93,609.47c-5.27-50.3-8.77-98.05-15.56-145.33-12-83.72-26.05-167.15-39.21-250.7C335.77,134.85,390.08,76.15,454.17,58c78.68-22.28,164.27,16.65,191.26,87.55,11.37,29.87,8.78,60.11,4.1,90.26-13.3,85.8-28.22,171.37-40.9,257.26-5.57,37.73-7.25,76-10.9,116.42,17.68,0,32.18-.13,46.68,0,19.7.23,25.05,5.19,26.72,24.25,4.5,51.34,51.14,88.9,110,88.83,36.73-.05,73.47,0,110.19.34,20.62.19,24.86,4.56,24.92,25.21q.22,72.89,0,145.79c-.06,20.27-5.8,26.2-26.26,26.21q-389.94.17-779.89,0c-20.51,0-26.35-6-26.4-26.08q-.15-73.75,0-147.5c.06-18.44,4.68-23.44,23-23.66,36.16-.44,72.33-.41,108.5-.29,35.46.11,68.33-8.28,90.33-37.52,11-14.6,17.72-33.5,22.32-51.5,4.39-17.2,7.92-23.65,25.94-24.1C368.44,609.18,383.08,609.47,402.93,609.47ZM875.53,759H125.11V882.68H875.53ZM442.16,606.84H556.94c4.82-47.58,7.87-93.86,14.48-139.62q18.27-126.44,40.12-252.34C624.79,139.08,564,84.56,494.23,88.41,429,92,382,140,387,199.29c2.21,26.39,6.57,52.62,10.58,78.83,12.1,79.18,25,158.24,36.51,237.51C438.38,545.61,439.52,576.05,442.16,606.84ZM330.92,721.69H669l-41.67-74.55H372.81C357.65,674.11,344.36,697.76,330.92,721.69Z" transform="translate(-83.63 -51.73)"/></svg>