<svg id="Capa_1" data-name="Capa 1" xmlns="http://www.w3.org/2000/svg" viewBox="0 0 1321.67 1584.13"><defs><style>.cls-1{fill:#b03e89;}</style></defs><title>UNIFORMES MORADO</title><path d="M1138.29,1658.33V1670h-.11v-11.65Z" transform="translate(-13.21 -105.44)"/><path d="M1334.88,1455.39h-5.41v-.34h5.15Z" transform="translate(-13.21 -105.44)"/><path d="M1139.78,1643v-2.92h.12V1643Z" transform="translate(-13.21 -105.44)"/><path d="M1139.88,1686.44v3.12h-.1v-3.13Z" transform="translate(-13.21 -105.44)"/><path class="cls-1" d="M13.21,435.67c21.67-34.94,42.54-68.62,63.43-102.29,19-30.56,38.39-60.84,56.82-91.72,24.39-40.84,58.56-69,103.48-84.87,44-15.59,87.62-32.24,131.24-48.87,8.29-3.17,13.1-1.76,20.06,4.21,18.73,16.08,37.4,33.32,58.9,44.86,46.57,25,91.28,15,132.14-15.53,12.71-9.5,24.17-20.75,35.56-31.87,4.42-4.31,7.91-5.16,13.53-3,48.9,18.38,98.1,36,146.8,54.89,37.44,14.53,66.51,39.76,87.72,74q59.16,95.49,118.49,190.87c1.72,2.79,3.23,5.7,5.41,9.55L815.84,534.73c-19.94-34.59-39.54-68.61-59.15-102.62l-2.28.75v461.7H248.69V428.07l-2.34-.62c-20.4,35.43-40.8,70.87-61.76,107.26Z" transform="translate(-13.21 -105.44)"/></svg>